<svg width="553" height="201" viewBox="0 0 553 201" fill="none" xmlns="http://www.w3.org/2000/svg">
<path d="M170.788 114.171C170.788 114.171 224.001 46.7654 255.632 46.9854C287.282 47.2054 321.755 91.3787 366.771 129.116C417.234 171.4 351.35 173.179 347.536 173.527C343.74 173.876 212.523 169.237 210.34 166.963C208.158 164.689 173.117 135.442 173.117 135.442L170.788 114.171Z" fill="#C5DDF9"/>
<path d="M443.779 116.204H446.035V91.2847H443.779V116.204Z" fill="#355389"/>
<path d="M444.923 42.9331L452.258 102.234H437.588L444.923 42.9331Z" fill="#3C8F7C"/>
<path d="M449.598 80.7244L439.128 89.7095L439.531 86.4455L449.268 78.1023L449.598 80.7244Z" fill="#50BFA5"/>
<path d="M447.984 67.7239L441.585 69.9243L441.878 67.4855L447.709 65.4868L447.984 67.7239Z" fill="#50BFA5"/>
<path d="M137.58 72.3083L144.145 125.265H131.034L137.58 72.3083Z" fill="#3C8F7C"/>
<path d="M149.133 80.1018L154.12 120.424H144.145L149.133 80.1018Z" fill="#3C8F7C"/>
<path d="M159.107 92.093L164.095 132.434H154.12L159.107 92.093Z" fill="#3C8F7C"/>
<path d="M125.332 84.136L131.878 137.093H118.768L125.332 84.136Z" fill="#3C8F7C"/>
<path d="M150.105 100.602C206.949 110.064 292.233 195.055 357.182 195.055C422.131 195.055 436.121 174.719 460.491 179.029C484.842 183.319 517.555 195.055 517.555 195.055L34.8398 196.485C34.8398 196.485 93.2608 91.1588 150.105 100.602Z" fill="#86B1F2"/>
<path d="M355.843 75.8481L362.408 128.786H349.297L355.843 75.8481Z" fill="#3C8F7C"/>
<path d="M371.447 91.4331L376.435 131.756H366.459L371.447 91.4331Z" fill="#3C8F7C"/>
<path d="M332.133 112.961L337.121 153.283H327.146L332.133 112.961Z" fill="#3C8F7C"/>
<path d="M343.594 87.6562L350.141 140.613H337.03L343.594 87.6562Z" fill="#3C8F7C"/>
<path d="M407.736 100.602C350.892 110.064 265.608 195.055 200.659 195.055C135.692 195.055 121.719 174.719 97.3496 179.029C72.9984 183.319 40.2856 195.055 40.2856 195.055L523.001 196.485C523.001 196.485 464.562 91.1588 407.736 100.602Z" fill="#86B1F2"/>
<path d="M388.269 179.956H390.836V151.515H388.269V179.956Z" fill="#355389"/>
<path d="M389.564 96.3657L397.926 164.028H381.184L389.564 96.3657Z" fill="#3C8F7C"/>
<path d="M394.9 139.494L382.962 149.726L383.421 146.022L394.515 136.487L394.9 139.494Z" fill="#50BFA5"/>
<path d="M393.066 124.659L385.75 127.153L386.098 124.384L392.736 122.11L393.066 124.659Z" fill="#50BFA5"/>
<path d="M417.268 192.081H419.707V149.191H417.268V192.081Z" fill="#355389"/>
<path d="M417.84 72.7302L429.905 159.298H405.792L417.84 72.7302Z" fill="#3C8F7C"/>
<path d="M429.134 153.797L407.497 146.976L407.827 144.629L428.786 151.248L429.134 153.797Z" fill="#50BFA5"/>
<path d="M425.339 126.457L411 121.928L411.312 119.581L424.973 123.89L425.339 126.457Z" fill="#50BFA5"/>
<path d="M34.8398 196.485C34.8398 196.485 97.1665 142.355 177.518 139.036C204.492 137.918 314.989 160.307 408.03 177.892C411.935 178.625 420.389 185.868 424.349 186.62C468.394 194.909 509.45 196.651 522.726 197.182L34.8398 196.485Z" fill="#96D9C9"/>
<path d="M535.8 136.946L535.892 132.288C535.892 128.823 533.251 126.036 530.006 126.036C521.809 126.036 515.153 133.095 515.153 141.805V148.168C515.153 150.955 513.668 153.376 511.504 154.604C509.523 155.705 508.332 157.923 508.332 160.289V163.644C508.332 167.275 509.945 170.667 512.604 172.941C514.163 174.28 515.171 176.315 515.171 178.607V183.356C515.171 188.619 519.187 192.873 524.138 192.873H526.962C531.913 192.873 535.928 188.619 535.928 183.356C535.122 176.718 537.084 172.886 539.357 170.686C542.695 167.458 544.657 162.929 544.657 158.143V157.465C544.657 152.404 542.456 147.673 538.789 144.446C537.12 143.052 535.8 140.742 535.8 136.946Z" fill="#4E9B87"/>
<path d="M545.023 198.392C545.023 198.392 522.139 168.008 507.745 163.35C493.35 158.692 506.92 177.194 506.92 177.194C506.92 177.194 481.377 149.267 472.007 151.779C463.425 154.09 472.007 171.4 472.007 171.4C472.007 171.4 462.325 161.81 450.589 161.81C438.854 161.81 459.666 197.695 459.666 197.695L545.023 198.392Z" fill="#96D9C9"/>
<path d="M472.007 197.714C472.007 197.714 456.365 155.887 437.002 160.728C421.306 164.652 432.473 185.685 431.501 184.731C430.547 183.778 422.131 169.493 408.506 169.493C394.882 169.493 412.687 188.765 412.687 188.765C412.687 188.765 383.678 179.707 381.405 189.224C379.516 197.127 390.06 197.714 390.06 197.714H472.007Z" fill="#3C8F7C"/>
<path d="M114.495 189.902C114.586 189.389 114.623 188.839 114.623 188.307C114.623 182.256 108.957 177.342 101.952 177.342C94.9478 177.342 89.2817 182.256 89.2817 188.307C89.2817 188.857 89.3184 189.389 89.4101 189.902H114.495Z" fill="#3C8F7C"/>
<path d="M128.834 187.207C128.926 186.474 128.962 185.722 128.962 184.952C128.962 176.425 123.296 169.494 116.292 169.494C109.287 169.494 103.621 176.407 103.621 184.952C103.621 185.722 103.658 186.474 103.749 187.207H128.834Z" fill="#50BFA5"/>
<path d="M124.195 196.687C124.104 196.173 124.067 195.623 124.067 195.092C124.067 189.04 129.733 184.126 136.738 184.126C143.742 184.126 149.408 189.04 149.408 195.092C149.408 195.642 149.372 196.173 149.28 196.687H124.195Z" fill="#50BFA5"/>
<path d="M103.934 196.687C103.824 195.954 103.769 195.202 103.769 194.432C103.769 185.905 110.957 178.974 119.832 178.974C128.707 178.974 135.895 185.887 135.895 194.432C135.895 195.202 135.84 195.954 135.73 196.687H103.934Z" fill="#3C8F7C"/>
<path d="M116.255 178.974C111.818 178.974 107.857 181.174 105.253 184.603C103.915 184.292 102.503 184.108 101.036 184.108C93.1693 184.108 86.7881 189.022 86.7881 195.074C86.7881 195.624 86.8431 196.155 86.9348 196.669H130.356C130.448 195.935 130.503 195.184 130.503 194.413C130.503 185.905 124.122 178.974 116.255 178.974Z" fill="#50BFA5"/>
<path d="M61.3351 164.139C57.6128 158.308 56.916 151.285 56.9893 146.407C57.0627 141.108 58.0529 137.147 58.0529 137.11L57.7778 137.019C57.7595 137.055 56.7876 141.053 56.6959 146.389C56.6226 151.321 57.3194 158.418 61.0968 164.322L61.3351 164.139Z" fill="#3C8F7C"/>
<path d="M58.9692 136.12C58.8775 137.312 58.3457 138.32 57.5756 138.944C56.9154 138.119 56.5487 136.964 56.6404 135.772C56.7321 134.58 57.2638 133.571 58.034 132.948C58.6941 133.791 59.0608 134.928 58.9692 136.12Z" fill="#3C8F7C"/>
<path d="M56.439 138.889C57.0808 139.934 57.2642 141.108 57.0625 142.135C56.0906 141.896 55.1554 141.218 54.532 140.191C53.8902 139.146 53.7068 137.972 53.9085 136.946C54.8804 137.184 55.8156 137.862 56.439 138.889Z" fill="#3C8F7C"/>
<path d="M55.0268 142.153C56.0169 142.795 56.6771 143.785 56.9338 144.812C55.9986 145.069 54.8984 144.922 53.9266 144.28C52.9364 143.638 52.2762 142.648 52.0195 141.621C52.9364 141.346 54.0366 141.511 55.0268 142.153Z" fill="#3C8F7C"/>
<path d="M55.4669 146.682C56.2371 147.195 56.7322 148.057 56.8605 149.01C56.0537 149.359 55.1369 149.322 54.3667 148.809C53.5966 148.295 53.1015 147.434 52.9731 146.48C53.7616 146.132 54.6785 146.168 55.4669 146.682Z" fill="#3C8F7C"/>
<path d="M58.6762 141.31C59.5564 140.852 60.5283 140.815 61.3717 141.145C61.1517 142.044 60.5649 142.869 59.6848 143.327C58.8046 143.786 57.8327 143.822 56.9893 143.492C57.2093 142.594 57.7961 141.768 58.6762 141.31Z" fill="#3C8F7C"/>
<path d="M58.5844 144.446C59.4646 143.987 60.4365 143.95 61.2799 144.281C61.0599 145.179 60.4731 146.004 59.593 146.463C58.7128 146.921 57.741 146.958 56.8975 146.628C57.1175 145.711 57.7043 144.904 58.5844 144.446Z" fill="#3C8F7C"/>
<path d="M56.0171 151.652C56.4756 151.762 56.8606 152.073 57.099 152.477C56.7689 152.752 56.3289 152.862 55.8704 152.77C55.412 152.66 55.027 152.348 54.7886 151.945C55.1186 151.67 55.5587 151.542 56.0171 151.652Z" fill="#3C8F7C"/>
<path d="M59.7949 168.246C51.2683 166.211 44.7588 159.885 40.798 154.952C36.5072 149.598 34.1968 144.647 34.1785 144.61L33.8301 144.794C33.8484 144.849 36.1772 149.818 40.4863 155.209C44.4837 160.197 51.0666 166.578 59.7033 168.632L59.7949 168.246Z" fill="#3C8F7C"/>
<path d="M34.2882 142.722C35.1867 144.006 35.4801 145.546 35.2417 146.94C33.9031 146.775 32.6012 146.004 31.6844 144.703C30.7676 143.401 30.4925 141.879 30.7309 140.485C32.0878 140.668 33.3897 141.42 34.2882 142.722Z" fill="#3C8F7C"/>
<path d="M34.0679 148.021C35.5532 148.424 36.7268 149.396 37.3686 150.625C36.2133 151.377 34.7097 151.652 33.2244 151.248C31.7392 150.845 30.5656 149.873 29.9238 148.644C31.079 147.893 32.5827 147.636 34.0679 148.021Z" fill="#3C8F7C"/>
<path d="M35.3335 152.716C36.8372 152.367 38.3224 152.679 39.441 153.449C38.7258 154.66 37.4973 155.613 35.9937 155.961C34.4901 156.31 33.0048 155.998 31.8862 155.228C32.6014 154.018 33.8116 153.064 35.3335 152.716Z" fill="#3C8F7C"/>
<path d="M38.7261 156.969C40.2297 156.621 41.715 156.933 42.8336 157.703C42.1184 158.913 40.8899 159.867 39.3862 160.215C37.8826 160.563 36.3974 160.252 35.2788 159.482C35.9939 158.271 37.2225 157.336 38.7261 156.969Z" fill="#3C8F7C"/>
<path d="M37.7174 149.891C37.644 148.443 38.1208 147.068 38.9276 146.096C39.8261 146.866 40.4495 148.094 40.5229 149.561C40.5962 151.01 40.1195 152.385 39.3127 153.357C38.3958 152.569 37.7907 151.34 37.7174 149.891Z" fill="#3C8F7C"/>
<path d="M41.2557 154.293C41.164 152.844 41.6225 151.469 42.411 150.479C43.3278 151.23 43.9696 152.459 44.0613 153.907C44.1529 155.356 43.6945 156.731 42.906 157.722C41.9892 156.97 41.3474 155.741 41.2557 154.293Z" fill="#3C8F7C"/>
<path d="M44.1899 161.187C44.74 160.821 45.3818 160.747 45.9502 160.931C45.8585 161.536 45.5101 162.104 44.96 162.471C44.4099 162.838 43.7681 162.911 43.1997 162.728C43.2914 162.104 43.6398 161.536 44.1899 161.187Z" fill="#3C8F7C"/>
<path d="M82.386 180.312L82.7527 180.293C82.2209 170.538 85.7966 161.352 88.8955 155.355C92.2512 148.864 95.7901 144.628 95.8268 144.573L95.5518 144.298C95.5151 144.335 91.9578 148.607 88.5655 155.135C85.4666 161.168 81.8542 170.447 82.386 180.312Z" fill="#3C8F7C"/>
<path d="M97.4587 144.005C96.6152 145.417 95.405 146.297 94.1764 146.554C93.9747 145.069 94.2681 143.418 95.1116 141.988C95.9551 140.576 97.1653 139.696 98.3939 139.439C98.5956 140.924 98.3022 142.593 97.4587 144.005Z" fill="#3C8F7C"/>
<path d="M92.9479 145.709C93.0029 147.415 92.4895 149.01 91.646 150.147C90.7108 149.193 90.0874 147.726 90.0323 146.003C89.9773 144.297 90.4908 142.702 91.3342 141.565C92.2694 142.519 92.8929 143.986 92.9479 145.709Z" fill="#3C8F7C"/>
<path d="M89.3539 148.754C90.0507 150.221 90.179 151.89 89.8123 153.357C88.6204 153.045 87.5019 152.11 86.8051 150.643C86.1083 149.176 85.9799 147.507 86.3466 146.04C87.5385 146.352 88.6571 147.306 89.3539 148.754Z" fill="#3C8F7C"/>
<path d="M86.8784 156.253C87.2084 156.84 87.3185 157.537 87.2084 158.16C86.695 158.069 86.1999 157.72 85.8699 157.134C85.5398 156.547 85.4298 155.85 85.5398 155.227C86.0532 155.318 86.5483 155.667 86.8784 156.253Z" fill="#3C8F7C"/>
<path d="M85.8144 158.949C86.1445 159.536 86.2545 160.233 86.1445 160.856C85.631 160.765 85.136 160.416 84.8059 159.83C84.4758 159.243 84.3658 158.546 84.4758 157.923C84.9893 158.014 85.4844 158.363 85.8144 158.949Z" fill="#3C8F7C"/>
<path d="M93.9194 150.222C95.1846 150.24 96.2848 150.882 97 151.872C96.1931 152.844 95.0379 153.449 93.791 153.431C92.5258 153.412 91.4256 152.771 90.7104 151.78C91.4989 150.809 92.6541 150.204 93.9194 150.222Z" fill="#3C8F7C"/>
<path d="M91.8657 154.017C93.1309 154.035 94.2311 154.677 94.9462 155.667C94.1394 156.639 92.9842 157.244 91.7373 157.225C90.4721 157.207 89.3719 156.565 88.6567 155.575C89.4636 154.603 90.6188 153.998 91.8657 154.017Z" fill="#3C8F7C"/>
<path d="M88.4923 159.207C89.3174 159.225 90.0325 159.628 90.491 160.27C89.9592 160.894 89.2074 161.297 88.4006 161.279C87.5754 161.26 86.8603 160.857 86.4019 160.215C86.9153 159.592 87.6671 159.207 88.4923 159.207Z" fill="#3C8F7C"/>
<path d="M50.5722 196.321C50.5722 194.689 60.3823 196.614 61.2075 194.396C62.0326 192.177 52.8092 192.049 52.8092 189.06C52.8092 186.071 57.5034 188.161 60.2723 188.161C63.0228 188.161 54.8263 186.878 54.8263 185.814C54.8263 184.75 57.7052 185.319 57.7052 184.182C57.7052 183.064 42.5957 182.202 44.3743 179.451C46.1347 176.701 54.2578 180.258 56.4949 178.828C58.732 177.397 44.5944 175.839 44.2276 173.73C43.8792 171.603 54.6429 175.545 56.1649 174.024C57.6868 172.502 39.13 167.019 39.9185 162.985C40.6886 158.951 53.9828 168.137 57.3017 167.147C60.6207 166.157 40.5603 152.019 45.2178 146.518C49.8754 141.017 58.787 164.745 61.8309 163.902C64.8748 163.058 58.0169 148.902 61.1341 146.445C64.233 143.988 73.1447 166.377 73.7132 170.961C74.2816 175.564 75.4001 161.078 80.2777 159.372C85.1553 157.685 80.4244 168.339 81.2679 171.603C82.1114 174.849 86.0721 163.26 91.4081 164.122C96.7441 164.965 81.763 175.564 83.2483 178.681C84.7335 181.798 96.304 168.302 99.9164 171.933C103.547 175.564 85.9804 185.612 86.9523 188.363C87.9058 191.113 98.4494 186.401 101.475 189.426C104.501 192.452 90.1612 194.377 88.2542 194.377C86.3472 194.377 79.0858 196.761 86.1821 196.303C93.2418 195.844 50.5722 197.935 50.5722 196.321Z" fill="#3C8F7C"/>
<path d="M78.5361 198.191C78.5361 198.191 90.345 198.833 93.7923 196.651C97.2396 194.487 94.5258 192.8 94.5258 192.8C94.5258 192.8 105.454 192.561 105.418 189.976C105.399 187.39 102.741 187.537 102.741 187.537C102.741 187.537 108.26 183.796 107.233 181.449C105.656 177.855 96.6712 184.108 96.6712 184.108C96.6712 184.108 99.6234 180.606 97.2396 179.799C90.6934 177.562 78.5361 198.191 78.5361 198.191Z" fill="#50BFA5"/>
<path d="M107.232 181.448C108.259 183.777 102.739 187.536 102.739 187.536C102.739 187.536 106.718 187.481 106.076 189.993C105.435 192.506 95.4228 193.349 95.4228 193.349C95.4228 193.349 98.9251 194.028 95.4778 196.191C92.0305 198.355 78.5347 198.172 78.5347 198.172L107.232 181.448Z" fill="#96D9C9"/>
<path d="M30.1646 95.0835C30.1829 94.4417 31.0631 93.9466 31.5398 94.515C31.9983 95.0834 31.9799 94.6984 32.4383 95.9269C33.7402 99.4293 35.6656 102.822 37.8844 105.792C42.1568 111.477 46.3926 114.337 51.1968 117.179C49.2165 112.723 47.8962 107.956 47.7312 103.152C47.6762 101.41 47.6945 99.5943 48.4463 97.9807C48.648 97.5406 49.4548 97.6323 49.5465 98.1273C49.9499 100.603 49.3632 102.473 50.1516 106.911C52.0587 117.491 59.6318 128.713 66.9481 136.58C65.5545 123.267 64.8761 108.158 67.3699 94.735C67.7733 92.5346 68.4334 90.4442 69.0385 88.2805C69.1852 87.7671 69.9003 87.9871 69.8087 88.5006C69.6803 89.2157 68.4884 98.4574 68.4151 99.0809C67.2598 109.294 67.4799 120.627 68.3967 130.95C74.0628 123.267 77.8585 114.3 79.6372 104.93C80.1689 102.161 80.2973 99.3009 81.0308 96.5871C81.1408 96.2203 81.7459 96.1653 81.8192 96.5871C82.571 100.658 81.0674 107.864 79.9672 111.788C77.7301 119.728 74.1545 126.843 69.2769 133.187C69.0935 133.426 77.125 195.532 76.905 196.321C76.5382 197.641 74.2278 198.576 73.8794 196.229C73.7327 195.276 69.3136 157.52 67.3332 140.027C66.5814 139.605 66.1046 138.872 64.1609 136.69C59.6868 131.647 55.2493 125.394 52.297 119.471C50.5184 119.361 37.6827 113.127 31.3198 98.9158C31.1364 98.5124 30.3113 96.5871 30.1829 96.147C30.0546 95.7619 30.1462 95.4502 30.1646 95.0835Z" fill="#184655"/>
<path d="M71.3675 74.9491C71.2208 73.042 71.1475 71.08 71.1475 69.0996C71.1475 46.9122 80.5542 28.9421 92.1797 28.9421C103.787 28.9421 113.212 46.9305 113.212 69.0996C113.212 71.08 113.139 73.042 112.992 74.9491H71.3675Z" fill="#50BFA5"/>
<path d="M47.5843 65.0845C47.4376 62.389 47.3643 59.6384 47.3643 56.8329C47.3643 25.5504 56.771 0.190674 68.3965 0.190674C80.022 0.190674 89.4104 25.5321 89.4104 56.8146C89.4104 59.6201 89.3371 62.3706 89.1904 65.0661H47.5843V65.0845Z" fill="#96D9C9"/>
<path d="M55.2678 99.7779C55.4145 97.8709 55.4879 95.9089 55.4879 93.9285C55.4879 71.741 46.0811 53.771 34.4556 53.771C22.8484 53.771 13.4233 71.7594 13.4233 93.9285C13.4233 95.9089 13.4967 97.8709 13.6434 99.7779H55.2678Z" fill="#96D9C9"/>
<path d="M88.934 99.7778C89.1174 97.0823 89.209 94.3318 89.209 91.5263C89.209 60.2438 77.2718 34.884 62.5474 34.884C47.823 34.884 35.8857 60.2438 35.8857 91.5263C35.8857 94.3318 35.9774 97.0823 36.1608 99.7778H88.934Z" fill="#50BFA5"/>
<path d="M68.4701 34.884C75.8232 34.884 82.4061 42.9339 86.7335 55.5496C88.9339 54.3943 91.281 53.7709 93.7198 53.7709C106.776 53.7709 117.374 71.7593 117.374 93.9284C117.374 95.9088 117.283 97.8708 117.118 99.7778H45.0541C44.889 97.0823 44.7974 94.3318 44.7974 91.5263C44.8157 60.2438 55.396 34.884 68.4701 34.884Z" fill="#96D9C9"/>
<path d="M32.6573 187.335C32.7306 186.62 32.7673 185.868 32.7673 185.116C32.7673 176.737 27.9997 169.934 22.1136 169.934C16.2275 169.934 11.46 176.737 11.46 185.116C11.46 185.868 11.4966 186.602 11.57 187.335H32.6573Z" fill="#3C8F7C"/>
<path d="M44.7046 183.595C44.778 182.568 44.8146 181.541 44.8146 180.477C44.8146 168.65 40.0471 159.078 34.161 159.078C28.2749 159.078 23.5073 168.668 23.5073 180.477C23.5073 181.541 23.544 182.586 23.6173 183.595H44.7046Z" fill="#50BFA5"/>
<path d="M40.799 196.705C40.7256 195.989 40.689 195.238 40.689 194.486C40.689 186.106 45.4565 179.303 51.3426 179.303C57.2287 179.303 61.9963 186.106 61.9963 194.486C61.9963 195.238 61.9596 195.971 61.8863 196.705H40.799Z" fill="#50BFA5"/>
<path d="M23.7639 196.705C23.6722 195.678 23.6172 194.651 23.6172 193.588C23.6172 181.761 29.6683 172.189 37.113 172.189C44.5761 172.189 50.6089 181.779 50.6089 193.588C50.6089 194.651 50.5539 195.696 50.4622 196.705H23.7639Z" fill="#3C8F7C"/>
<path d="M34.1245 172.189C30.4022 172.189 27.0649 175.233 24.8645 180C23.7459 179.56 22.554 179.322 21.3255 179.322C14.7059 179.322 9.35156 186.125 9.35156 194.505C9.35156 195.256 9.38824 195.99 9.47992 196.723H45.9701C46.0618 195.696 46.0984 194.67 46.0984 193.606C46.0984 181.779 40.7441 172.189 34.1245 172.189Z" fill="#50BFA5"/>
<path d="M235.996 26.1157V24.7502H231.384V26.1157H235.996Z" fill="#F7CC7F"/>
<path d="M241.096 56.7853V24.5916C241.096 22.4676 239.366 20.738 237.242 20.738H230.537C228.413 20.738 226.683 22.4676 226.683 24.5916V56.7853C226.683 58.9092 228.413 60.6388 230.537 60.6388H237.242C239.366 60.6388 241.096 58.9092 241.096 56.7853Z" fill="#F47458"/>
<path d="M233.904 60.6388H237.758C239.609 60.6388 241.096 59.8195 241.096 58.8182V22.5586C241.096 21.5573 240.034 20.738 238.213 20.738H233.904V60.6388Z" fill="#B75742"/>
<path d="M234.531 44.7995V35.5146H232.832V44.7995H234.531Z" fill="#1A1A1A"/>
<path d="M254.811 56.7251V33.3005C254.811 31.1461 253.051 29.3862 250.897 29.3862H244.312C242.158 29.3862 240.398 31.1461 240.398 33.3005V56.7251C240.398 58.8794 242.158 60.6393 244.312 60.6393H250.897C253.051 60.6393 254.811 58.8794 254.811 56.7251Z" fill="#355389"/>
<path d="M247.62 60.639H251.473C253.324 60.639 254.811 60.0018 254.811 59.2129V30.8424C254.811 30.0535 253.324 29.4163 251.473 29.4163H247.62V60.639Z" fill="#5184CE"/>
<path d="M249.709 33.573V32.511H245.097V33.573H249.709Z" fill="#F7CC7F"/>
<path d="M248.262 48.2391V40.9568H246.563V48.2391H248.262Z" fill="#1A1A1A"/>
<path d="M179.47 61.155H178.772V68.1642H179.47V61.155Z" fill="#13375B"/>
<path d="M262.912 61.155H262.214V68.1642H262.912V61.155Z" fill="#13375B"/>
<path d="M232.782 46.2261H185.204C182.868 46.2261 180.987 48.1073 180.987 50.4437V56.3909C180.987 58.7273 182.868 60.6086 185.204 60.6086H232.782C235.118 60.6086 237 58.7273 237 56.3909V50.4437C237.03 48.1073 235.118 46.2261 232.782 46.2261Z" fill="#B75742"/>
<path d="M237.031 53.4173V49.5638C237.031 47.7129 235.878 46.2261 234.482 46.2261H183.567C182.171 46.2261 181.018 47.7129 181.018 49.5638V53.4173H237.031Z" fill="#91342A"/>
<path d="M190.03 51.3237H188.118V55.9358H190.03V51.3237Z" fill="#F7CC7F"/>
<path d="M229.9 51.3237H227.988V55.9358H229.9V51.3237Z" fill="#F7CC7F"/>
<path d="M214.759 52.7808H201.712V54.4799H214.759V52.7808Z" fill="#1A1A1A"/>
<path d="M224.407 31.8132H193.609C191.09 31.8132 189.088 33.8462 189.088 36.3343V41.6746C189.088 44.1931 191.121 46.1957 193.609 46.1957H224.407C226.925 46.1957 228.928 44.1627 228.928 41.6746V36.3646C228.958 33.8462 226.925 31.8132 224.407 31.8132Z" fill="#4E9B87"/>
<path d="M228.958 39.0348V35.1509C228.958 33.3 228.139 31.8132 227.138 31.8132H190.878C189.877 31.8132 189.058 33.3 189.058 35.1509V39.0045H228.958V39.0348Z" fill="#3C8F7C"/>
<path d="M194.428 36.9407H193.063V41.5528H194.428V36.9407Z" fill="#F7CC7F"/>
<path d="M259.848 60.6088L226.865 60.5785L226.319 45.8926H259.848C263.914 45.8926 267.221 49.1999 267.221 53.2658C267.221 57.3318 263.914 60.6088 259.848 60.6088Z" fill="#FAE0B2"/>
<path d="M233.905 53.2658C233.905 57.3318 230.871 60.6392 227.138 60.6392C223.406 60.6392 220.372 57.3318 220.372 53.2658C220.372 49.1999 223.406 45.8926 227.138 45.8926C230.871 45.8926 233.905 49.1999 233.905 53.2658Z" fill="#F7CC7F"/>
<path d="M240.884 61.3062C240.58 61.0635 240.52 60.6387 240.732 60.3049C242.977 57.1493 243.584 53.7812 242.583 50.3221C242.037 48.3802 241.066 46.9238 240.55 46.1955C240.338 45.8921 240.368 45.4976 240.641 45.2549C240.944 44.9818 241.43 45.0122 241.703 45.3763C242.31 46.1955 243.311 47.8037 243.948 49.8973C244.768 52.6282 245.01 56.7852 241.915 61.1849C241.673 61.4883 241.218 61.5489 240.884 61.3062Z" fill="#F47458"/>
<path d="M252.96 61.3062C252.657 61.0635 252.596 60.6387 252.809 60.3049C255.054 57.1493 255.661 53.7812 254.66 50.3221C254.114 48.3802 253.143 46.9238 252.627 46.1955C252.414 45.8921 252.445 45.4976 252.718 45.2549C253.021 44.9818 253.507 45.0122 253.78 45.3763C254.387 46.1955 255.388 47.8037 256.025 49.8973C256.844 52.6282 257.087 56.7852 253.992 61.1849C253.719 61.4883 253.264 61.5489 252.96 61.3062Z" fill="#F47458"/>
<path d="M232.721 51.9299C232.357 49.6238 231.113 48.4405 230.112 47.8639C228.655 47.0143 226.744 46.893 225.075 47.5302C223.467 48.137 222.192 49.5631 221.707 51.2016C221.282 52.6581 221.586 54.1752 222.556 55.4193C224.165 57.5129 226.653 57.1792 227.866 56.6633C228.959 56.1779 229.778 55.0552 229.96 53.8111C230.112 52.7795 229.626 51.8085 228.746 51.232C227.866 50.6555 226.744 50.6555 225.894 51.232C225.257 51.6568 224.62 52.4457 225.227 53.9932L225.712 53.8111C225.318 52.8401 225.469 52.1423 226.167 51.6871C226.865 51.232 227.745 51.232 228.473 51.6871C229.202 52.1423 229.566 52.9312 229.444 53.7504C229.293 54.8428 228.595 55.8137 227.654 56.2082C226.592 56.6633 224.377 56.9668 222.951 55.1462C221.859 53.7201 221.919 52.3243 222.192 51.414C222.617 49.9272 223.801 48.6225 225.227 48.0763C226.774 47.4695 228.504 47.5909 229.839 48.3494C231.113 49.0776 231.932 50.352 232.175 52.0512C232.509 54.2359 232.114 55.9654 230.961 57.2095C228.807 59.5459 224.256 59.5155 223.467 59.4852C223.74 59.6673 224.043 59.8493 224.347 60.001H224.377C225.773 60.001 229.293 59.7583 231.326 57.5433C232.63 56.1779 233.085 54.2966 232.721 51.9299Z" fill="#F47458"/>
<path d="M223.892 36.9407H222.526V41.5528H223.892V36.9407Z" fill="#F7CC7F"/>
<path d="M213.119 38.3982H203.834V40.0974H213.119V38.3982Z" fill="#1A1A1A"/>
<path d="M200.857 31.2128L185.173 60.9495L185.63 61.1901L201.313 31.4534L200.857 31.2128Z" fill="black"/>
<path d="M218.468 30.9847L218.012 31.2253L234.11 61.7404L234.566 61.4997L218.468 30.9847Z" fill="black"/>
<path d="M251.609 28.9957L251.131 29.1904L264.174 61.1968L264.652 61.0021L251.609 28.9957Z" fill="black"/>
<path d="M235.973 20.458L235.486 20.6296L249.781 61.146L250.267 60.9744L235.973 20.458Z" fill="black"/>
<path d="M266.099 60.6089H175.708V61.5495H266.099V60.6089Z" fill="#13375B"/>
<path d="M112.169 161.772C112.169 161.772 181.139 173.212 181.988 172.726C182.807 172.241 191.758 133.675 191.758 133.675C191.758 133.675 134.714 123.419 133.804 123.419C132.894 123.419 120.483 133.341 120.301 134.009C120.119 134.676 112.169 161.772 112.169 161.772Z" fill="#183658"/>
<path d="M322.596 171.572C324.265 171.724 407.799 169.934 407.799 169.934L401.518 150.727C401.518 150.727 389.927 133.219 383.828 133.522C377.699 133.856 341.318 127.939 335.037 132.309C328.756 136.678 323.142 133.189 320.138 143.627C317.165 154.034 314.828 155.218 317.165 161.498C319.441 167.779 322.596 171.572 322.596 171.572Z" fill="#183658"/>
<path d="M147.003 197.091C162.705 197.091 175.434 184.362 175.434 168.66C175.434 152.958 162.705 140.229 147.003 140.229C131.301 140.229 118.572 152.958 118.572 168.66C118.572 184.362 131.301 197.091 147.003 197.091Z" fill="#1A1A1A"/>
<path d="M147.003 188.443C157.929 188.443 166.786 179.585 166.786 168.659C166.786 157.733 157.929 148.876 147.003 148.876C136.077 148.876 127.219 157.733 127.219 168.659C127.219 179.585 136.077 188.443 147.003 188.443Z" fill="#9E9DA2"/>
<path d="M147.002 181.889C154.309 181.889 160.232 175.966 160.232 168.659C160.232 161.353 154.309 155.43 147.002 155.43C139.696 155.43 133.773 161.353 133.773 168.659C133.773 175.966 139.696 181.889 147.002 181.889Z" fill="#D8D9DD"/>
<path d="M365.926 197.091C381.628 197.091 394.357 184.362 394.357 168.66C394.357 152.958 381.628 140.229 365.926 140.229C350.224 140.229 337.495 152.958 337.495 168.66C337.495 184.362 350.224 197.091 365.926 197.091Z" fill="#1A1A1A"/>
<path d="M365.927 188.443C376.853 188.443 385.711 179.585 385.711 168.659C385.711 157.733 376.853 148.876 365.927 148.876C355.001 148.876 346.144 157.733 346.144 168.659C346.144 179.585 355.001 188.443 365.927 188.443Z" fill="#9E9DA2"/>
<path d="M352.697 168.659C352.697 175.972 358.614 181.889 365.927 181.889C373.239 181.889 379.156 175.972 379.156 168.659C379.156 161.347 373.239 155.43 365.927 155.43C358.614 155.399 352.697 161.347 352.697 168.659Z" fill="#D8D9DD"/>
<path d="M431.194 141.563C428.797 125.724 421.029 122.386 398.029 117.774C372.663 112.707 340.469 96.1699 340.469 96.1699C340.469 96.1699 285.549 69.2558 272.107 66.1609C258.665 63.0659 225.561 63.9458 197.767 64.1886C169.973 64.401 153.649 72.1384 139.539 83.1528C125.43 94.1672 100.943 102.572 100.943 102.572L96.4829 103.361C91.9011 104.18 88.5938 108.155 88.5938 112.798V152.122C88.5938 156.582 91.5977 160.466 95.9064 161.619L111.988 165.867C113.293 166.08 114.506 165.169 114.658 163.834C116.418 147.753 130.315 135.524 146.913 135.524C164.542 135.555 179.015 150.028 179.015 167.688C179.015 169.69 178.833 171.663 178.469 173.544C178.105 175.516 179.622 177.306 181.625 177.306H329.546C332.428 177.306 334.643 174.788 334.279 171.936C334.097 170.57 334.006 169.175 334.006 167.748C333.945 150.332 348.055 135.889 365.471 135.524C383.525 135.16 398.272 149.664 398.272 167.657C398.272 168.841 398.211 170.024 398.09 171.177C397.726 174.454 400.275 177.306 403.552 177.306H424.822C428.675 177.306 431.831 174.181 431.831 170.297V149.695C431.77 147.024 431.619 144.263 431.194 141.563Z" fill="#F7CC7F"/>
<path d="M89.534 117.471H107.042C108.529 117.471 109.56 118.988 108.984 120.384L107.011 125.087C105.13 129.577 100.761 132.49 95.906 132.49H89.534C88.29 132.49 87.2583 131.489 87.2583 130.215V119.746C87.2583 118.472 88.29 117.471 89.534 117.471Z" fill="#CF283C"/>
<path d="M403.338 124.754C412.987 126.241 424.093 135.374 424.093 135.374C426.763 138.226 424.548 142.868 420.664 142.626L401.851 141.442C397.937 141.2 394.599 138.529 393.537 134.767C391.686 128.425 393.234 123.206 403.338 124.754Z" fill="#EAFCFC"/>
<path d="M88.6844 153.609C87.4707 153.579 86.6211 154.792 87.0763 155.915C88.3203 159.101 91.0208 161.589 94.4799 162.499L112.504 167.263C113.96 167.506 115.325 166.474 115.507 164.987C115.841 161.923 116.569 159.01 117.631 156.249C117.996 155.308 117.298 154.307 116.327 154.276L88.6844 153.609Z" fill="#EAB054"/>
<path d="M398.393 161.013C397.028 160.982 395.966 162.166 396.148 163.531C396.33 165.048 396.451 166.566 396.451 168.143C396.451 169.478 396.391 170.753 396.239 172.058C395.844 175.699 398.666 178.885 402.307 178.885H425.914C430.192 178.885 433.682 175.395 433.682 171.117V165.018C433.682 163.288 432.286 161.862 430.557 161.832L398.393 161.013Z" fill="#EAB054"/>
<path opacity="0.5" d="M340.498 105.303C340.195 105.121 308.912 87.9777 288.187 78.359C267.645 68.8617 244.737 69.863 243.766 69.8934C241.126 69.8327 186.296 68.6493 169.456 73.8986C152.464 79.1783 130.375 103.301 129.434 104.332L129.191 104.606L135.139 132.521L135.776 132.491C153.071 131.52 166.301 136.132 174.068 145.811C179.925 153.124 180.653 160.861 180.653 160.952L180.713 161.62L243.068 163.228H243.796L244.555 163.258L331.456 164.957V164.199C331.881 135.95 340.832 106.487 340.893 106.183L341.075 105.607L340.498 105.303ZM182.018 160.133C181.715 158.039 180.41 151.424 175.252 144.931C169.699 137.952 158.411 129.881 136.322 130.973L130.8 105.061C133.348 102.299 154.285 80.2099 169.911 75.3247C185.538 70.4396 236.362 71.2588 243.068 71.3802V161.711L182.018 160.133ZM329.939 163.41L244.524 161.741V71.3802C248.529 71.2588 269.072 71.1374 287.581 79.7244C306.788 88.6149 335.067 104.029 339.285 106.335C338.01 110.553 330.485 137.376 329.939 163.41Z" fill="#FEB546"/>
<path opacity="0.5" d="M87.0757 155.916C88.3197 159.102 91.0203 161.59 94.4793 162.501L112.503 167.264C113.959 167.507 115.325 166.476 115.507 164.989C115.628 163.805 115.81 162.652 116.053 161.53L87.0757 155.916Z" fill="#FEB546"/>
<path opacity="0.5" d="M396.391 169.842C396.36 170.601 396.3 171.329 396.209 172.088C395.814 175.729 398.636 178.915 402.277 178.915H425.884C430.162 178.915 433.652 175.425 433.652 171.147V169.873H396.391V169.842Z" fill="#FEB546"/>
<path d="M335.371 169.843C335.371 168.235 335.492 166.657 335.705 165.11C335.978 163.259 334.582 161.56 332.701 161.499L178.832 157.737C177.164 157.706 175.95 159.284 176.405 160.923C177.194 163.744 177.619 166.718 177.619 169.783C177.619 171.816 177.437 173.788 177.073 175.73C176.708 177.732 178.226 179.614 180.259 179.614H330.819C333.763 179.614 336.008 177.004 335.613 174.061C335.462 172.665 335.371 171.239 335.371 169.843Z" fill="#EAB054"/>
<path opacity="0.5" d="M335.371 169.843C335.371 169.813 335.371 169.782 335.371 169.752H177.65C177.65 171.785 177.468 173.757 177.103 175.699C176.739 177.702 178.257 179.583 180.289 179.583H330.85C333.793 179.583 336.039 176.974 335.644 174.03C335.462 172.665 335.371 171.239 335.371 169.843Z" fill="#FEB546"/>
<path d="M147.61 107.944L232.631 108.733C232.631 108.733 237.85 108.581 238.548 103.696C239.245 98.8106 239.185 77.8134 239.185 77.8134C239.185 77.8134 238.578 73.5957 234.542 73.5351C232.084 73.5047 211.542 72.0483 191.577 74.4757C175.283 76.448 160.202 83.9123 148.763 95.3515L142.725 101.39C142.725 101.39 138.659 107.853 147.61 107.944Z" fill="#EAFCFC"/>
<path d="M248.651 80.484V102.482C248.651 105.335 250.836 107.701 253.628 107.792L320.442 110.493C321.99 110.554 323.477 109.856 324.357 108.551C325.57 106.791 325.692 103.878 319.714 99.964C309.307 93.1976 282.817 78.5117 273.017 77.116C266.766 76.2057 258.604 75.8112 253.506 75.6595C250.866 75.5685 248.651 77.7531 248.651 80.484Z" fill="#EAFCFC"/>
<path d="M160.203 97.6573C160.203 97.6573 215.608 91.346 216.792 92.4383C217.975 93.5307 225.682 111.554 227.078 116.47L161.811 115.863L157.229 108.945L160.203 97.6573Z" fill="#B75742"/>
<path d="M277.689 102.633C277.689 102.633 282.787 108.671 284.243 115.165L282.635 117.774L279.419 114.376L277.689 102.633Z" fill="#263D60"/>
<path d="M283.121 86.7948C282.15 80.4228 276.385 75.841 270.377 78.936C269.012 79.6339 267.191 81.0296 266.251 82.2433C263.732 85.49 263.065 89.4953 260.455 92.6509C261.426 93.3792 262.579 94.1377 263.944 94.866L265.583 92.6813L265.037 95.3818C269.072 97.3237 274.777 98.9015 282.605 98.8712C283.576 94.4715 283.637 90.1931 283.121 86.7948Z" fill="#1A1A1A"/>
<path d="M269.618 100.812C269.618 100.812 263.822 100.448 261.547 102.936C259.241 105.424 266.644 125.177 267.039 128.333C267.464 131.519 263.61 137.83 263.61 137.83C263.61 137.83 279.54 145.294 283.454 142.715C283.454 142.715 282.817 117.258 282.423 115.012C281.998 112.737 278.539 103.512 277.689 102.602C276.84 101.722 269.618 100.812 269.618 100.812Z" fill="#355389"/>
<path d="M271.529 93.0753C271.529 93.0753 271.499 93.2574 271.438 93.5304C271.165 94.9262 270.194 99.5383 269.527 100.813C268.707 102.36 272.318 107.245 275.777 106.638C276.809 106.456 274.897 102.148 274.988 101.693C275.17 100.813 275.413 99.6293 275.656 98.3853C275.808 97.6874 275.929 96.9895 276.05 96.322C276.415 94.4407 276.718 92.9236 276.718 92.9236L271.529 93.0753Z" fill="#F7A491"/>
<path d="M160.627 98.7197C160.567 98.3253 160.415 97.9915 160.202 97.6577L151.98 105.911C151.98 105.911 145.79 115.712 159.414 115.863L163.146 115.894L160.627 98.7197Z" fill="#B75742"/>
<path opacity="0.3" d="M271.439 93.5314C271.5 93.2279 271.53 93.0762 271.53 93.0762L276.719 92.9548C276.719 92.9548 276.416 94.472 276.051 96.3532C275.93 97.0207 275.778 97.6883 275.657 98.3862C274.868 98.2648 274.018 97.8704 273.169 97.1421C272.259 96.3532 271.652 95.3822 271.288 94.3506C271.348 94.0472 271.409 93.7438 271.439 93.5314Z" fill="#F47458"/>
<path d="M275.019 81.3024C275.019 81.3024 272.591 81.0293 271.044 83.0016C269.527 84.9739 267.858 91.1031 271.681 94.4105C275.474 97.7482 279.236 93.9857 279.813 89.9804C280.359 86.0055 280.572 81.181 275.019 81.3024Z" fill="#F7A491"/>
<path d="M280.906 89.9509C280.451 90.8309 279.693 91.3163 279.207 91.0432C278.722 90.7702 278.691 89.8296 279.146 88.9496C279.602 88.0697 280.36 87.5842 280.846 87.8573C281.331 88.1303 281.361 89.071 280.906 89.9509Z" fill="#F7A491"/>
<path d="M275.292 80.666C275.292 80.666 272.015 86.4918 269.709 86.7346C267.373 87.0077 267.069 90.1026 267.069 90.1026C267.069 90.1026 267.919 82.9721 270.225 81.6066C272.531 80.2412 275.292 80.666 275.292 80.666Z" fill="#1A1A1A"/>
<path d="M270.317 88.2213C270.499 89.253 270.135 90.1936 269.467 90.3453C268.8 90.4667 268.102 89.7384 267.92 88.7068C267.738 87.6751 268.102 86.7345 268.769 86.5828C269.437 86.4614 270.135 87.1897 270.317 88.2213Z" fill="#F7A491"/>
<path d="M262.093 129.032C262.093 128.971 264.278 119.656 265.158 117.592C266.038 115.529 269.497 105.941 269.497 105.941L265.036 104.97C265.036 104.97 262.154 112.464 260.849 115.863C259.544 119.261 260.09 125.512 260.03 127.272C260.03 127.302 259.848 128.758 259.848 128.789C259.817 128.971 259.757 129.153 259.757 129.183C259.696 129.274 259.544 129.851 259.544 129.911C259.544 129.972 259.393 130.154 259.362 130.245C259.301 130.336 259.18 131.52 259.15 131.732C259.119 131.914 259.21 132.369 259.21 132.369L259.15 133.158C259.119 133.735 259.726 133.583 259.726 133.583C259.726 133.856 259.817 134.008 259.969 134.068C260.121 134.129 260.303 134.068 260.333 134.099C260.363 134.099 260.363 134.19 260.363 134.19C260.333 134.372 260.546 134.493 260.667 134.524C260.788 134.554 261.031 134.463 261.092 134.372C261.152 134.281 261.213 134.311 261.213 134.311C261.334 134.433 261.85 134.402 261.972 134.25C262.093 134.099 262.184 133.249 262.245 133.158C262.305 133.067 262.396 132.946 262.427 132.824C262.457 132.703 262.852 131.823 262.882 131.671C262.912 131.52 262.639 130.913 262.609 130.549C262.548 130.185 262.214 129.669 262.123 129.487C262.063 129.456 262.093 129.274 262.093 129.032Z" fill="#F48C7F"/>
<path d="M276.84 91.9223L273.078 91.7402C273.078 91.7402 273.078 93.1663 274.746 93.2877C276.749 93.4698 276.84 91.9223 276.84 91.9223Z" fill="white"/>
<path d="M256.329 94.805L254.964 103.786C254.964 103.786 259.91 114.467 262.883 113.557C265.371 112.768 263.824 103.331 263.824 103.331C263.824 103.331 262.459 98.264 262.883 95.7153C263.278 93.1361 256.329 94.805 256.329 94.805Z" fill="#F7A491"/>
<path d="M262.883 95.6863C263.277 93.1375 256.329 94.8063 256.329 94.8063L256.208 95.5649C256.42 96.0504 256.663 96.4752 256.966 96.8089C258.514 98.4778 260.941 99.5095 263.065 99.5701C262.853 98.1744 262.731 96.7179 262.883 95.6863Z" fill="#F47458"/>
<path d="M255.176 82.0925C254.994 82.0318 253.598 92.318 256.208 95.1399C258.817 97.9617 263.945 98.9024 265.766 96.657C267.799 94.1992 267.677 83.1241 263.611 80.2112C259.545 77.3287 255.176 82.0925 255.176 82.0925Z" fill="#F7A491"/>
<path d="M262.094 74.7496C258.938 75.3868 256.905 77.3287 256.147 78.1479C254.721 78.33 252.779 79.1189 250.776 82.4566C248.318 86.5529 250.139 91.1043 252.991 93.3497C255.874 95.5647 255.813 98.1438 255.813 98.1438L256.268 96.8087C256.602 95.8074 256.754 94.7151 256.632 93.6835C256.572 93.0463 256.42 92.3484 256.177 91.8022C255.479 90.3154 257.664 89.3141 258.271 88.07C258.726 87.1294 258.756 84.9447 259.515 83.3669L260.395 82.1532C260.395 82.1532 262.428 80.5754 264.43 81.0002C266.403 81.425 266.13 73.9 262.094 74.7496Z" fill="#13375B"/>
<path d="M258.12 89.8903C258.151 91.1344 257.574 92.166 256.846 92.1964C256.118 92.1964 255.511 91.1951 255.511 89.951C255.511 88.7069 256.057 87.6753 256.785 87.645C257.513 87.6146 258.12 88.6159 258.12 89.8903Z" fill="#F7A491"/>
<path d="M262.398 92.773L266.343 92.5605C266.343 92.5605 266.343 94.0777 264.583 94.1991C262.489 94.3811 262.398 92.773 262.398 92.773Z" fill="white"/>
<path d="M253.841 103.423C254.205 102.756 254.873 102.3 255.631 102.209C258.939 101.906 268.072 101.906 272.745 109.977C273.473 111.252 274.019 112.617 274.383 114.043L275.354 118.079L251.323 117.29L251.353 114.62C251.171 110.736 251.99 106.852 253.841 103.423Z" fill="#3C8F7C"/>
<path d="M310.885 119.565L314.374 105.395C314.617 104.454 314.04 103.483 313.069 103.24C312.129 102.997 311.158 103.574 310.915 104.545L307.274 119.383L310.885 119.565Z" fill="#1A1A1A"/>
<path d="M301.872 119.14C302.874 118.533 303.663 118.018 304.209 117.684C304.239 117.654 306.758 116.44 306.818 116.44C307.182 116.318 307.486 116.197 307.546 116.197C307.728 116.197 308.821 115.833 308.912 115.772C309.003 115.742 309.458 115.742 309.64 115.742C309.822 115.742 311.855 114.71 312.189 114.528C312.523 114.376 313.13 113.77 313.13 113.77L314.434 113.011C315.405 112.465 314.525 111.646 314.525 111.646C314.98 111.373 315.102 111.069 315.041 110.766C314.95 110.462 314.707 110.22 314.677 110.159C314.677 110.098 314.798 110.007 314.798 110.007C315.102 109.855 315.102 109.4 315.011 109.158C314.92 108.915 314.556 108.642 314.343 108.642C314.161 108.611 314.131 108.52 314.131 108.52C314.161 108.187 313.645 107.428 313.281 107.398C312.917 107.367 311.461 108.096 311.279 108.096C311.097 108.096 310.793 108.035 310.581 108.156C310.368 108.247 308.578 108.49 308.275 108.642C307.971 108.793 307.304 109.795 306.818 110.22C306.333 110.675 305.817 111.767 305.665 112.07C305.605 112.192 305.271 112.374 304.907 112.556C304.846 112.617 293.892 116.561 287.429 118.503L301.872 119.14Z" fill="#F7A491"/>
<path d="M267.737 117.774C267.07 113.709 266.22 109.43 265.31 107.428C263.338 103.089 256.693 100.509 253.446 103.21C251.716 104.636 252.445 111.494 253.931 117.41L267.737 117.774Z" fill="#50BFA5"/>
<path d="M171.216 94.1988C171.216 94.1988 163.085 93.9864 160.323 95.8373C157.562 97.6579 157.896 115.864 157.896 115.864L160.566 116.379C160.566 116.379 161.537 128.911 163.631 129.548C165.724 130.216 179.379 125.998 182.231 122.478C185.083 118.959 176.223 92.9851 176.223 92.9851L171.216 94.1988Z" fill="#3C8F7C"/>
<path d="M185.69 79.7551C186.388 77.5704 186.873 70.9254 187.025 68.6496C186.904 68.4979 186.327 67.527 186.388 65.6154C186.418 64.2803 185.508 62.0652 186.358 62.217C187.207 62.3687 187.268 64.6747 187.784 64.2803C188.299 63.8858 188.542 59.031 189.301 59.1523C190.09 59.2737 189.544 63.8555 189.999 63.4914C190.454 63.1273 190.484 58.9096 191.577 59.122C192.669 59.3041 191.091 64.0679 191.668 64.1892C192.244 64.2803 193.185 61.2763 194.065 61.4281C194.945 61.5798 192.608 65.494 192.881 65.3119C193.154 65.0995 195.036 63.4914 195.339 63.8555C195.703 64.2499 191.334 68.862 191.334 70.0454C191.698 73.11 192.426 78.6324 191.425 82.1218C190.211 86.3698 187.116 95.8368 187.116 95.8368L180.532 94.259C180.532 94.3196 184.84 82.3646 185.69 79.7551Z" fill="#F7A491"/>
<path d="M188.483 65.2202C188.817 65.3719 189.09 65.5843 189.303 65.8574C189.333 65.9181 190.152 66.6767 189.94 67.9511C189.818 67.1622 189.636 66.2822 188.483 65.2202Z" fill="#F48C7F"/>
<path d="M146.335 97.7482C146.335 97.7482 146.517 96.6862 145.607 95.0477C145.03 93.9857 144.878 91.8617 144.272 92.3169C143.665 92.772 144.575 94.6532 144.029 94.5319C143.483 94.4105 141.359 90.6177 140.843 91.0425C140.297 91.4673 142.542 94.896 142.026 94.805C141.541 94.7139 139.842 91.3459 139.083 91.9224C138.324 92.4989 141.419 95.6849 141.025 96.0187C140.63 96.3221 138.719 94.2892 138.112 94.7443C137.505 95.2298 140.843 97.4448 140.539 97.3841C140.236 97.3234 138.173 96.7773 138.082 97.202C137.96 97.6572 142.299 99.0226 142.785 99.9936C143.27 100.965 150.704 110.523 152.828 110.553C154.952 110.553 164.48 104.12 165.178 101.996C165.876 99.9026 164.996 97.6875 163.63 97.3841C162.235 97.0807 153.344 103.483 152.919 103.392C152.494 103.301 146.335 97.7482 146.335 97.7482Z" fill="#F7A491"/>
<path d="M144.12 95.4421C143.908 95.7152 143.787 96.049 143.696 96.3828C143.696 96.4435 143.362 97.5358 144.181 98.5068C143.938 97.7786 143.635 96.9593 144.12 95.4421Z" fill="#F48C7F"/>
<path d="M166.393 110.978C166.393 110.978 174.95 117.775 175.89 119.171C176.588 120.202 174.252 131.915 174.252 131.915C174.252 131.915 170.853 132.006 169.306 130.822C169.306 130.822 170.247 122.721 169.822 122.417C169.427 122.114 160.021 117.927 160.021 117.927L160.628 113.133L166.393 110.978Z" fill="#B75742"/>
<path d="M182.839 86.4915C182.839 86.4915 184.325 86.7646 189.393 92.287L183.506 104.272L178.075 94.3199L182.839 86.4915Z" fill="#9BC1F9"/>
<path d="M173.28 94.9262C173.28 94.9262 177.134 94.0766 178.499 93.4091C179.865 92.7415 192.396 122.295 189.241 123.327C182.626 125.512 165.482 131.277 165.482 131.277C165.482 131.277 164.997 129.578 165.604 126.452C166.696 121.051 166.332 109.005 166.089 106.912C165.968 105.668 158.655 109.248 158.655 109.248L155.772 99.9024C155.772 99.9024 164.117 97.0502 166.908 96.1703C167.727 95.8972 173.28 94.9262 173.28 94.9262Z" fill="#9BC1F9"/>
<path d="M187.572 113.223C185.995 108.338 175.648 94.3501 175.557 94.1984L177.256 93.0454C177.62 93.5916 186.086 105.486 187.724 110.644L187.572 113.223Z" fill="#3C8F7C"/>
<path d="M165.088 122.265L164.026 120.9C164.087 120.839 171.308 115.074 171.521 108.672C171.703 102.209 166.514 95.9883 166.453 95.9276L167.788 94.8049C168.031 95.078 173.493 101.571 173.28 108.732C173.038 115.924 165.422 122.022 165.088 122.265Z" fill="#3C8F7C"/>
<path d="M171.429 75.174C171.429 75.174 174.494 72.8983 177.376 76.6001C179.682 79.5434 179.379 78.6027 180.532 80.0895C181.685 81.546 183.414 81.6674 183.657 84.1251C183.93 86.5526 182.838 87.0684 182.838 87.0684C182.838 87.0684 184.082 88.8586 183.141 90.9219C182.201 92.9852 179.561 94.9878 177.164 94.9575C177.164 94.9575 173.826 97.2939 170.155 96.7477C166.483 96.2016 167.727 96.0802 166.271 96.2319C164.814 96.3836 160.657 94.8058 160.991 91.8322C160.991 91.8322 158.291 89.2227 160.354 86.6436C162.447 84.0644 163.57 82.2439 164.571 78.9669C165.573 75.6899 169.73 74.5975 171.429 75.174Z" fill="#1A1A1A"/>
<path d="M175.526 91.9837C175.526 91.9837 175.859 96.2924 176.314 96.6565C176.77 97.0206 177.407 97.6274 176.921 98.7198C176.436 99.8121 173.796 99.448 172.522 98.9625C171.308 98.5074 170.458 97.5667 170.458 97.5667L170.337 90.679L175.526 91.9837Z" fill="#F7A491"/>
<path d="M174.008 93.956C173.158 93.7436 171.641 93.3491 170.336 91.6499L170.306 90.679L175.525 91.9837C175.525 91.9837 175.616 93.0457 175.738 94.138C175.04 94.1987 174.402 94.047 174.008 93.956Z" fill="#F48C7F"/>
<path d="M168.182 86.9159C168.182 86.9159 167.788 84.3975 166.271 85.065C164.753 85.7325 166.362 89.4344 167.636 89.1613C168.941 88.8882 168.182 86.9159 168.182 86.9159Z" fill="#F7A491"/>
<path d="M172.886 77.1157C172.886 77.1157 175.313 76.8122 176.77 78.5721C178.226 80.332 180.138 85.6116 178.499 89.5562C176.83 93.5007 174.13 92.8635 173.007 92.6208C171.884 92.3477 169.669 91.7409 168.213 88.3728C166.726 84.9744 166.665 77.055 172.886 77.1157Z" fill="#F7A491"/>
<path d="M222.526 117.411L227.016 138.772L219.279 138.013L215.577 118.473L222.526 117.411Z" fill="#F7A491"/>
<path d="M223.862 118.018L215.578 118.473C215.578 118.473 214.971 112.738 214.819 110.007C214.637 106.7 214.698 102.391 215.123 102.452C216.276 102.664 217.823 103.18 218.764 104.394C222.102 108.551 223.862 118.018 223.862 118.018Z" fill="#5184CE"/>
<path d="M218.401 109.278C218.613 110.279 223.862 138.225 223.862 138.225C211.452 145.052 201.955 139.226 201.955 139.226C201.955 139.226 202.44 120.444 201.803 117.835C201.378 116.105 199.861 104.757 200.953 104.393C202.38 103.907 204.534 103.179 206.324 102.906C207.872 102.663 213.849 102.269 214.941 102.572C214.941 102.542 217.581 105.06 218.401 109.278Z" fill="#EAFCFC"/>
<path d="M213.94 82.6372C213.94 82.6372 218.976 82.5462 218.552 86.7335C218.552 86.7335 222.284 88.1899 219.796 91.558C219.796 91.558 222.466 95.1688 217.823 98.6582C217.823 98.6582 216.579 103.513 211.36 101.207C211.36 101.207 209.813 102.36 207.659 100.813C205.504 99.265 205.231 98.3547 205.231 98.3547C205.231 98.3547 200.498 97.4445 201.135 93.1054C201.135 93.1054 198.647 90.9814 202.409 88.3113C202.409 88.3113 202.349 82.3337 207.416 83.1227C207.446 83.0923 210.42 78.5409 213.94 82.6372Z" fill="#13375B"/>
<path d="M206.08 92.4375C205.959 93.4995 205.261 94.2884 204.533 94.1973C203.804 94.1063 203.349 93.1657 203.471 92.1037C203.592 91.0417 204.29 90.2528 205.018 90.3438C205.746 90.4348 206.232 91.3755 206.08 92.4375Z" fill="#F7A491"/>
<path d="M217.884 95.6546C217.428 96.6255 216.549 97.1717 215.881 96.8683C215.213 96.5648 215.031 95.5332 215.487 94.5622C215.942 93.5913 216.822 93.0451 217.489 93.3485C218.157 93.6519 218.308 94.6836 217.884 95.6546Z" fill="#F7A491"/>
<path d="M211.815 98.9011C211.815 98.9618 212.24 101.723 212.453 103.149C212.544 103.695 212.24 104.211 211.724 104.393C210.359 104.909 207.689 105.546 206.02 103.786C205.868 103.635 205.808 103.392 205.808 103.179L206.505 96.7771L211.815 98.9011Z" fill="#F7A491"/>
<path d="M212.24 101.662C210.783 102.269 206.596 101.753 206.262 99.1132L206.505 96.8071L211.815 98.9008C211.815 98.9311 212.118 100.812 212.24 101.662Z" fill="#F48C7F"/>
<path d="M213.181 85.8838C213.181 85.8838 210.966 85.3983 208.872 86.7031C206.748 88.0078 203.319 93.1661 206.202 97.6568C209.054 102.148 213.939 99.9325 215.638 96.3824C217.338 92.8323 218.066 87.5526 213.181 85.8838Z" fill="#F7A491"/>
<path d="M211.815 96.9591L208.872 96.7771C208.872 96.7771 208.872 97.8998 210.177 98.0211C211.755 98.1729 211.815 96.9591 211.815 96.9591Z" fill="white"/>
<path d="M216.944 88.3719C216.944 88.3719 214.789 87.2189 213.212 87.3706C211.603 87.5223 206.415 91.3152 205.656 90.678C204.898 90.0408 205.869 86.7031 206.475 86.2176C207.082 85.7321 209.479 84.2757 209.692 84.2453C209.904 84.215 212.089 84.2453 212.453 84.3667C212.817 84.4577 215.548 85.7625 215.548 85.7625L216.944 88.3719Z" fill="#13375B"/>
<path d="M185.812 140.744C185.842 140.623 185.964 140.623 186.085 140.592C187.178 140.532 188.27 140.441 189.362 140.259C189.544 140.228 189.726 140.168 189.878 140.107C190.181 139.986 190.485 139.955 190.788 140.046C190.97 140.077 191.122 140.077 191.304 140.077C191.85 140.046 193.428 139.47 194.217 139.318C194.399 139.288 194.551 139.136 194.581 138.954C195.279 135.768 196.766 128.668 196.918 126.331C197.1 123.358 198.738 109.885 198.738 109.885L204.261 111.251C204.261 111.251 202.319 121.203 201.833 126.028C201.469 129.73 198.01 137.71 196.918 140.016C196.402 141.715 195.127 141.806 194.854 141.836C194.672 141.867 194.52 141.958 194.429 142.079C194.247 142.322 194.005 142.534 193.762 142.716C193.58 142.838 193.428 143.02 193.307 143.202C193.094 143.536 192.882 143.9 192.7 144.264C192.579 144.507 192.427 144.598 192.214 144.537C192.002 144.476 191.881 144.325 191.881 144.051C191.881 143.657 192.002 143.293 192.184 142.959C192.366 142.625 192.336 142.443 192.123 142.17C192.002 142.018 191.85 141.867 191.699 141.715C191.517 141.594 191.365 141.503 191.122 141.533C190.728 141.654 190.333 141.745 189.939 141.806L189.605 141.897L189.423 141.927C189.393 141.927 188.816 142.018 188.604 142.018C188.452 142.018 188.179 142.049 187.966 142.049C187.754 142.079 187.329 141.988 187.329 141.988C187.147 141.988 186.965 141.927 186.813 141.806C186.753 141.745 186.692 141.685 186.722 141.594C186.753 141.503 186.813 141.472 186.904 141.442C187.026 141.412 187.724 141.321 187.693 141.29C187.481 141.29 186.844 141.29 186.662 141.29C186.389 141.29 186.146 141.199 185.964 141.017C185.873 140.956 185.782 140.865 185.812 140.744Z" fill="#F7A491"/>
<path d="M195.036 117.986L203.047 121.87C203.047 121.87 204.291 115.984 205.231 112.343C206.051 109.217 202.045 103.634 200.71 104.393C197.767 106.092 195.036 117.986 195.036 117.986Z" fill="#5184CE"/>
<path d="M249.229 107.61L320.534 110.644C320.534 110.644 314.314 131.459 314.162 132.491C314.01 133.523 290.616 146.297 284.73 146.145C278.843 145.993 265.128 141.078 262.185 140.198C259.242 139.318 251.565 133.341 252.02 129.669C252.506 125.998 249.229 107.61 249.229 107.61Z" fill="#F7CC7F"/>
<path d="M269.739 118.17H250.593C250.107 118.17 249.743 117.776 249.743 117.32V115.682C249.743 115.196 250.138 114.832 250.593 114.832H269.739C270.225 114.832 270.589 115.227 270.589 115.682V117.32C270.619 117.776 270.225 118.17 269.739 118.17Z" fill="#EAB054"/>
<path d="M278.023 78.4511L287.672 82.426L287.126 80.4234L283.515 78.4511C283.515 78.4511 280.572 77.8746 280.268 77.7229C280.026 77.5712 278.023 78.4511 278.023 78.4511Z" fill="#F7CC7F"/>
<path opacity="0.6" d="M324.083 103.878L248.651 97.4146V102.451C248.651 105.304 250.836 107.67 253.628 107.761L320.442 110.462C321.99 110.523 323.477 109.825 324.357 108.52C325.115 107.428 325.449 105.88 324.083 103.878Z" fill="#C5DDF9"/>
<path opacity="0.7" d="M248.651 97.4139V96.7161L323.81 103.513L324.083 103.877L248.651 97.4139Z" fill="#C5DDF9"/>
<path opacity="0.2" d="M266.038 108.278L272.895 108.581L278.539 99.994L271.863 99.4175L266.038 108.278Z" fill="white"/>
<path opacity="0.2" d="M278.235 108.793L283.727 100.419L281.178 100.206L275.625 108.672L278.235 108.793Z" fill="white"/>
<path d="M146.487 107.883L232.63 108.732L233.389 136.041C233.389 136.041 223.315 150.666 222.102 150.514C220.888 150.363 195.157 146.236 192.851 146.388C190.545 146.539 170.367 136.648 169.426 136.83C168.486 137.042 162.175 133.644 162.175 133.644L151.919 126.422L141.754 115.954L146.487 107.883Z" fill="#F7CC7F"/>
<path d="M163.934 116.469H144.788C144.302 116.469 143.938 116.075 143.938 115.62V113.981C143.938 113.496 144.332 113.132 144.788 113.132H163.934C164.419 113.132 164.783 113.526 164.783 113.981V115.62C164.783 116.105 164.389 116.469 163.934 116.469Z" fill="#EAB054"/>
<path d="M176.678 88.0688L173.704 88.6454C173.704 88.6454 173.977 89.768 175.312 89.5557C176.89 89.2826 176.678 88.0688 176.678 88.0688Z" fill="white"/>
<path d="M167.423 85.2168C167.423 85.2168 174.159 82.1219 174.827 77.2974C175.495 72.4729 169.305 77.085 169.305 77.085L166.786 79.4821L167.423 85.2168Z" fill="#1A1A1A"/>
<path d="M251.109 107.003C251.109 107.003 252.353 107.853 253.931 107.822C253.931 107.822 251.837 108.46 251.777 108.429C251.716 108.369 250.654 107.519 250.684 107.519C250.684 107.458 251.109 107.003 251.109 107.003Z" fill="#F7CC7F"/>
<path d="M257.602 75.8098L266.037 76.356C266.037 76.356 264.671 74.0803 264.065 74.0803C263.458 74.0803 259.635 74.0803 259.635 74.0803L257.602 75.8098Z" fill="#F7CC7F"/>
<path d="M550.91 200.647H2.09039C0.935175 200.647 0 199.712 0 198.557C0 197.401 0.935175 196.466 2.09039 196.466H550.91C552.065 196.466 553 197.401 553 198.557C552.982 199.712 552.065 200.647 550.91 200.647Z" fill="#183658"/>
</svg>
