<svg width="41" height="41" viewBox="0 0 41 41" fill="none" xmlns="http://www.w3.org/2000/svg">
<g id="Group">
<path id="Vector" d="M32.3233 7.77558L29.6015 1.50488C29.2546 0.677678 28.294 0.304101 27.4668 0.650991L21.1961 3.37274C20.7958 3.53285 20.3422 3.55953 19.942 3.39943L13.5912 0.891147C12.764 0.570942 11.8034 0.971197 11.4832 1.7984L8.97492 8.14915C8.81482 8.54941 8.4946 8.86961 8.12102 9.02972L1.85032 11.7515C1.02312 12.0984 0.649562 13.059 0.996452 13.8862L3.71819 20.1569C3.87829 20.5571 3.905 21.0108 3.7449 21.411L1.23661 27.7618C0.916407 28.589 1.31667 29.5496 2.14387 29.8698L8.4946 32.3781C8.89486 32.5382 9.21508 32.8584 9.37518 33.2319L12.0969 39.5027C12.4438 40.3298 13.4044 40.7034 14.2316 40.3565L20.5023 37.6348C20.9026 37.4747 21.3562 37.448 21.7565 37.6081L28.1072 40.1164C28.9344 40.4366 29.895 40.0363 30.2152 39.2091L32.7235 32.8584C32.8836 32.4581 33.2038 32.1379 33.5774 31.9778L39.8481 29.2561C40.6753 28.9092 41.0489 27.9486 40.702 27.1214L37.9802 20.8507C37.8201 20.4504 37.7935 19.9968 37.9536 19.5965L40.4618 13.2458C40.7821 12.4186 40.3818 11.4579 39.5546 11.1377L33.2038 8.62946C32.8302 8.46936 32.5101 8.17583 32.3233 7.77558Z" fill="#F4B503"/>
<path id="Vector_2" d="M22.1281 29.8267C27.2861 29.1499 30.9188 24.4199 30.242 19.2619C29.5652 14.104 24.8352 10.4713 19.6772 11.1481C14.5192 11.8249 10.8865 16.5549 11.5634 21.7129C12.2402 26.8708 16.9702 30.5035 22.1281 29.8267Z" fill="#F9CD15"/>
</g>
</svg>
